<svg xmlns="http://www.w3.org/2000/svg" viewBox="0 0 24 24" role="img" aria-label="Suricata">
  <rect x="1.5" y="1.5" width="21" height="21" rx="5" fill="#101a30" stroke="#7bd2ff" stroke-width="1.5"/>
  <path d="M8.1 9.1c0-1.2 1-2.1 2.2-2.1h3.5c1.2 0 2.1.9 2.1 2.1v.4h-2v-.1c0-.4-.3-.7-.8-.7h-2c-.5 0-.8.3-.8.7v.3c0 .3.1.5.5.7l3.9 1.4c.9.3 1.4 1 1.4 1.9v.8c0 1.2-.9 2.1-2.1 2.1h-3.7c-1.2 0-2.2-.9-2.2-2.1V14h2v.2c0 .4.3.7.8.7h2.2c.4 0 .8-.3.8-.7v-.4c0-.3-.2-.5-.6-.7l-3.8-1.4c-.9-.3-1.4-1-1.4-1.9Z" fill="#e8f7ff"/>
</svg>
